<svg width="216" height="24" viewBox="0 0 216 24" fill="none" xmlns="http://www.w3.org/2000/svg">
<path fill-rule="evenodd" clip-rule="evenodd" d="M0.5 23.277H22.8019V0.976491H0.5V23.277ZM12.0507 10.093H19.4385L12.1629 1.34703H22.4307V22.9078H14.9621V22.2796H12.0514L12.0507 10.0937V10.093ZM0.867751 1.34703H11.107L3.83135 10.093H11.2191L11.2198 22.2789H8.30914V22.9071H0.868448L0.867751 1.34703ZM206.077 0L198.15 22.4586H196.483V23.2756H200.793V22.4586H199.063L201.265 16.2312H208.437L210.542 22.4579H207.964V23.2756H215.702V22.4586H213.721L206.077 0ZM204.913 5.6298L208.184 15.4114H201.546L204.913 5.6298ZM132.975 23.277H133.888L142.664 0.975098H141.751L132.975 23.277ZM115.741 1.79348H117.502V17.2056L106.933 0.975795H102.029V1.79348H103.789V22.4593H100.791L93.1483 0.000696531L85.2221 22.4593H82.3191V1.79348H84.0812V0.975795H79.4258L73.5753 17.9293L67.4419 0.975795H62.8805V1.79348H64.6427V22.4593H61.1532C60.1781 22.4273 59.3284 21.5789 59.3284 20.0996V16.8288C59.3284 14.3444 58.51 12.2361 55.9935 11.5445C58.1959 10.8842 59.7059 8.77658 59.7059 6.54291C59.7059 3.39822 57.3454 0.975795 52.7527 0.975795H45.833V1.79348H47.6258V22.4593H44.1161L36.4714 0.000696531L28.5452 22.4593H26.8785V23.2777H31.187V22.4593H29.4576L31.6586 16.2312H38.8304L40.938 22.4593H38.3582V23.2777H53.225V22.4593H50.5198V11.954H52.3446C54.9864 11.954 56.339 13.0217 56.339 15.6016V17.5204C56.339 22.0505 59.327 23.2777 60.9638 23.2777H67.1891V22.4593H65.4283V4.15253L72.6308 23.5284L79.4565 3.55493V22.4593H77.6944V23.2777H87.8632V22.4593H86.1331L88.3348 16.2312H95.5066L97.6142 22.4593H95.0344V23.2777H106.336V22.4593H104.576V2.92599L118.29 24V1.79348H122.527V22.4593H120.766V23.2777H127.151V22.4593H125.391V1.79348H127.151V0.975795H115.741V1.79348ZM31.942 15.4135L35.3082 5.63119L38.579 15.4135H31.942ZM52.3446 11.1356H50.5198V1.79348H52.0298C54.7043 1.79348 56.4957 3.49224 56.4957 6.66898C56.4957 8.43042 55.1118 11.1356 52.3446 11.1356ZM88.6182 15.4135L91.9837 5.63119L95.2545 15.4135H88.6182ZM156.509 22.9928C151.006 22.9928 150.691 15.6322 150.691 12.1414C150.691 9.15339 150.974 1.25718 156.637 1.25718C159.121 1.25718 161.354 4.30784 161.606 7.61203H162.329V0.533518H161.574C161.48 1.19519 161.134 1.63538 160.411 1.63538C159.498 1.63538 158.43 0.440187 156.637 0.440187C150.598 0.440187 146.979 6.9831 146.979 12.1414C146.979 17.8345 151.037 23.8119 156.509 23.8119C158.397 23.8119 159.75 22.8041 161.04 22.8041C161.7 22.8041 162.046 23.3069 162.109 23.7478H162.832V16.0724H162.077C162.077 20.3837 159.467 22.9928 156.509 22.9928H156.509ZM173.189 0L165.262 22.4586H163.595V23.2749H167.904V22.4586H166.174L168.376 16.2305H175.548L177.655 22.4586H175.076V23.2749H182.813V22.4586H180.833L173.189 0ZM168.659 15.4114L172.025 5.6298L175.295 15.4114H168.659ZM191.189 10.2232C187.509 9.21607 185.81 7.58069 185.81 5.25299C185.81 2.76858 187.729 1.25788 189.931 1.25788C192.919 1.25788 195.215 4.27789 195.215 7.32926H195.939V0.881071H195.247C195.152 1.41598 195.059 2.04422 194.366 2.04422C193.581 2.04422 192.541 0.440187 189.931 0.440187C186.943 0.440187 184.08 3.11405 184.08 6.9831C184.08 10.1919 186.031 12.4241 189.144 13.2725C193.297 14.4057 195.404 15.3487 195.404 18.9671C195.404 20.8232 193.737 22.9921 190.529 22.9921C189.616 22.9921 188.705 22.7107 187.919 22.2698C185.841 21.0747 184.457 18.5889 184.457 16.4826H183.703V23.7471H184.396C184.553 23.0242 184.93 22.3325 185.653 22.3325C186.88 22.3325 188.013 23.8105 190.529 23.8105C195.468 23.8105 197.197 19.6273 197.197 16.7647C197.197 12.6129 195.059 11.3237 191.189 10.2232Z" fill="#171717"/>
</svg>
