<svg width="51" height="51" viewBox="0 0 51 51" fill="none" xmlns="http://www.w3.org/2000/svg">
<path d="M50.8943 0.360352H0.892578V50.3621H50.8943V0.360352Z" fill="black"/>
<path d="M8.18187 47.1766C5.62409 47.1766 3.88965 45.8673 3.88965 43.431V43.3365H5.29339V43.3972C5.29339 44.99 6.44744 45.9213 8.19537 45.9213C9.13345 45.9213 10.9084 45.5164 10.9084 44.0181C10.9084 41.1162 4.23384 43.1745 4.23384 39.0308C4.23384 36.9387 6.17748 36.0073 8.11438 36.0073C10.3887 36.0073 11.9409 37.3166 11.9409 39.4357V39.5302H10.5372V39.4357C10.5372 38.0657 9.57212 37.2491 8.01315 37.2491C6.91985 37.2491 5.64433 37.7148 5.64433 38.9633C5.64433 41.6763 12.3189 39.7731 12.3189 43.9506C12.3121 46.1777 10.2403 47.1766 8.18187 47.1766Z" fill="white"/>
<path d="M20.2956 41.3727C20.0797 41.5617 19.5465 41.6561 19.2698 41.6831L18.271 41.8114C16.4016 42.0273 14.6537 42.4053 14.6537 44.025C14.6537 45.368 15.8077 45.9281 16.8335 45.9281C17.8931 45.9281 18.8312 45.5502 19.4858 44.8956C20.0122 44.3354 20.2956 43.5863 20.2956 42.7764V41.3727ZM20.5453 46.8662C20.3901 46.3061 20.3901 45.179 20.3901 45.179C19.857 46.333 18.6422 47.1766 16.739 47.1766C14.5524 47.1766 13.2432 45.9889 13.2432 44.0587C13.2432 41.2512 15.7672 40.9745 18.2305 40.6911L18.7569 40.6303C19.7557 40.5088 20.2821 40.3806 20.2821 39.2873C20.2821 37.8836 19.4723 37.2627 17.7244 37.2627C16.2599 37.2627 15.0721 37.8836 15.0721 39.4763V39.5708H13.6683V39.4763C13.6683 37.013 15.6322 36.0142 17.8796 36.0142C20.3091 36.0142 21.7061 36.9792 21.7061 39.2603V44.9968C21.7061 45.4962 21.7939 46.5558 21.9221 46.8662H20.5453Z" fill="white"/>
<path d="M27.3743 46.8663H25.8423L22.1035 36.3247H23.73L26.6252 45.2533L29.4867 36.3247H30.8634H30.9917L27.3743 46.8663Z" fill="white"/>
<path d="M33.374 33.5508C33.374 32.9974 32.915 32.5654 32.3886 32.5654C31.8622 32.5654 31.4033 32.9906 31.4033 33.517C31.4033 34.0772 31.8622 34.5023 32.3886 34.5023C32.915 34.5023 33.374 34.0772 33.374 33.517V33.5508Z" fill="white"/>
<path d="M31.6738 46.8663V36.3247H33.0506H33.1383V46.8663H31.6738Z" fill="white"/>
<path d="M34.5762 46.8665V32.3296H35.9462H36.0407V46.8665H34.5762Z" fill="white"/>
<path d="M37.4443 46.8665V32.3296H38.8211H38.9088V46.8665H37.4443Z" fill="white"/>
<path d="M44.0438 47.1766C41.459 47.1766 39.7246 45.8673 39.7246 43.431V43.3365H41.1284V43.3972C41.1284 44.99 42.3161 45.9213 44.0303 45.9213C44.9684 45.9213 46.7771 45.5164 46.7771 44.0181C46.7771 41.1162 40.0755 43.1745 40.0755 39.0308C40.0755 36.9387 42.0192 36.0073 43.9561 36.0073C46.2642 36.0073 47.8096 37.3166 47.8096 39.4357V39.5302H46.4059V39.4357C46.4059 38.0657 45.4408 37.2491 43.8819 37.2491C42.7616 37.2491 41.4793 37.7148 41.4793 38.9633C41.4793 41.6763 48.1876 39.7731 48.1876 43.9506C48.1741 46.1777 46.1022 47.1766 44.0438 47.1766Z" fill="white"/>
</svg>
