<svg width="29" height="43" viewBox="0 0 29 43" fill="none" xmlns="http://www.w3.org/2000/svg">
<path fill-rule="evenodd" clip-rule="evenodd" d="M28.6881 14.844C28.6881 17.5898 27.9165 20.1554 26.5785 22.3358L15.2432 42.0394C14.859 42.7073 13.8956 42.7081 13.5104 42.0408L2.35803 22.7265C0.867462 20.4645 0 17.7556 0 14.844C0 6.92204 6.42204 0.5 14.344 0.5C22.266 0.5 28.6881 6.92204 28.6881 14.844ZM14.3431 19.1416C17.2865 19.1416 19.6725 16.7555 19.6725 13.8122C19.6725 10.8688 17.2865 8.48275 14.3431 8.48275C11.3998 8.48275 9.01374 10.8688 9.01374 13.8122C9.01374 16.7555 11.3998 19.1416 14.3431 19.1416Z" fill="#D9C557"/>
</svg>
