<svg width="85" height="33" viewBox="0 0 85 33" fill="none" xmlns="http://www.w3.org/2000/svg">
<path d="M44.3003 32.0519H44.2927L43.4667 29.7423H43.0537V32.4638H43.3455V30.2529H43.3521C43.4089 30.4701 43.4449 30.5836 43.5122 30.7675L44.1392 32.4628H44.4243L45.0552 30.7675C45.1224 30.5836 45.1802 30.4065 45.2153 30.2637H45.2228V32.4628H45.5326V29.7413H45.1158L44.3003 32.0519ZM41.2626 29.7315L40.3295 32.4647H40.6327L40.8998 31.6704H41.9322L42.1993 32.4647H42.5233L41.5903 29.7315H41.2626ZM40.9888 31.4014L41.4122 30.1287H41.4198L41.8432 31.4014H40.9888ZM8.22666 29.7315L7.29366 32.4647H7.59677L7.86388 31.6704H8.89634L9.16345 32.4647H9.4874L8.5544 29.7315H8.22666ZM7.95292 31.4014L8.37632 30.1287H8.3839L8.8073 31.4014H7.95292ZM46.5906 31.9561H46.583V29.7423H46.2695V32.4638H46.5897L47.9394 30.294H47.947V32.4638H48.2568V29.7423H47.965L46.5906 31.9561ZM77.9386 30.0328H78.7759V32.4638H79.0932V30.0328H79.9306V29.7423H77.9395V30.0328H77.9386ZM54.3833 32.2319C53.8917 32.2319 53.5782 31.8054 53.5782 31.0883C53.5782 30.4153 53.8879 29.978 54.3757 29.978C54.7603 29.978 54.9422 30.202 55.0558 30.6109L55.3552 30.5258C55.2339 30.0259 54.9384 29.6914 54.3795 29.6914C53.7203 29.6914 53.2647 30.247 53.2647 31.0932C53.2647 31.9795 53.7099 32.5166 54.3795 32.5166C54.9318 32.5166 55.2699 32.1742 55.3978 31.6342L55.0947 31.5647C54.9886 32.004 54.7603 32.2319 54.3833 32.2319ZM51.267 31.059V31.0512C51.5379 30.9925 51.7652 30.7939 51.7652 30.4221C51.7652 29.9702 51.4375 29.7413 50.8644 29.7413H49.921V32.4628H50.9364C51.5237 32.4628 51.8514 32.1762 51.8514 31.7203C51.8505 31.3241 51.5947 31.1216 51.267 31.059ZM50.2308 30.022H50.8436C51.2708 30.022 51.4593 30.1619 51.4593 30.474C51.4593 30.787 51.2348 30.9338 50.836 30.9338H50.2308V30.022ZM50.9213 32.1879H50.2308V31.2018H50.854C51.2812 31.2018 51.5417 31.3564 51.5417 31.6988C51.5407 32.0118 51.3485 32.1879 50.9213 32.1879ZM71.004 29.9594C71.004 31.4454 70.8904 31.8347 70.7975 32.0079C70.7189 32.1517 70.6233 32.2172 70.4774 32.2172C70.4632 32.2172 70.4064 32.2172 70.3921 32.2133V32.4814C70.4281 32.4921 70.5172 32.5 70.5626 32.5C70.6583 32.5 70.808 32.4775 70.933 32.3601C71.1187 32.1801 71.3072 31.7858 71.3072 30.2783V30.0318H72.2013V32.4628H72.5186V29.7413H71.004V29.9594ZM65.8654 30.0328H66.7028V32.4638H67.0201V30.0328H67.8574V29.7423H65.8664V30.0328H65.8654ZM61.602 29.6904C60.9579 29.6904 60.4663 30.2314 60.4663 31.103C60.4663 31.9746 60.9579 32.5156 61.602 32.5156C62.2433 32.5156 62.7349 31.9746 62.7349 31.103C62.7349 30.2314 62.2433 29.6904 61.602 29.6904ZM61.602 32.2319C61.118 32.2319 60.7798 31.8093 60.7798 31.103C60.7798 30.3967 61.118 29.978 61.602 29.978C62.0832 29.978 62.4214 30.3977 62.4214 31.103C62.4214 31.8093 62.0832 32.2319 61.602 32.2319ZM63.6679 31.9561H63.6603V29.7423H63.3468V32.4638H63.6669L65.0167 30.294H65.0243V32.4638H65.334V29.7423H65.0423L63.6679 31.9561ZM55.6725 30.0328H56.5098V32.4638H56.8271V30.0328H57.6635V29.7423H55.6725V30.0328ZM74.1279 30.8712H73.5719V29.7423H73.2546V32.4638H74.1488C74.719 32.4638 75.0998 32.2065 75.0998 31.6655C75.0998 31.0844 74.6764 30.8712 74.1279 30.8712ZM74.1422 32.1771H73.5719V31.1549H74.145C74.5656 31.1549 74.7863 31.3055 74.7863 31.6733C74.7863 32.0187 74.5694 32.1771 74.1422 32.1771ZM76.6494 32.2319C76.1578 32.2319 75.8443 31.8054 75.8443 31.0883C75.8443 30.4153 76.154 29.978 76.6418 29.978C77.0264 29.978 77.2083 30.202 77.3219 30.6109L77.6213 30.5258C77.5 30.0259 77.2045 29.6914 76.6456 29.6914C75.9864 29.6914 75.5308 30.247 75.5308 31.0932C75.5308 31.9795 75.976 32.5166 76.6456 32.5166C77.1979 32.5166 77.536 32.1742 77.6639 31.6342L77.3608 31.5647C77.2547 32.004 77.0264 32.2319 76.6494 32.2319ZM59.0843 29.7423H58.1902V32.4638H58.5075V31.3016H59.0635C59.6119 31.3016 60.0353 31.0923 60.0353 30.5112C60.0344 29.9663 59.6536 29.7423 59.0843 29.7423ZM59.0805 31.0257H58.5075V30.0289H59.0777C59.5049 30.0289 59.7218 30.1727 59.7218 30.518C59.7218 30.8858 59.5011 31.0257 59.0805 31.0257ZM68.7004 31.1725H69.6656V30.8927H68.7004V30.0318H70V29.7413H68.3831V32.4628H70.0748V32.1762H68.7004V31.1725ZM15.3847 31.1725H16.3499V30.8927H15.3847V30.0318H16.6843V29.7413H15.0674V32.4628H16.7591V32.1762H15.3847V31.1725ZM12.8178 29.9594C12.8178 31.4454 12.7041 31.8347 12.6113 32.0079C12.5327 32.1517 12.437 32.2172 12.2911 32.2172C12.2769 32.2172 12.2201 32.2172 12.2059 32.2133V32.4814C12.2419 32.4921 12.3309 32.5 12.3764 32.5C12.473 32.5 12.6217 32.4775 12.7468 32.3601C12.9324 32.1801 13.1209 31.7858 13.1209 30.2783V30.0318H14.0151V32.4628H14.3324V29.7413H12.8187V29.9594H12.8178ZM19.0002 30.8858H17.6467V29.7423H17.3294V32.4638H17.6467V31.1764H19.0002V32.4638H19.3138V29.7423H19.0002V30.8858ZM81.8023 31.059V31.0512C82.0732 30.9925 82.3005 30.7939 82.3005 30.4221C82.3005 29.9702 81.9728 29.7413 81.3997 29.7413H80.4563V32.4628H81.4717C82.0589 32.4628 82.3867 32.1762 82.3867 31.7203C82.3867 31.3241 82.13 31.1216 81.8023 31.059ZM80.766 30.022H81.3788C81.806 30.022 81.9945 30.1619 81.9945 30.474C81.9945 30.787 81.77 30.9338 81.3713 30.9338H80.766V30.022ZM81.4565 32.1879H80.766V31.2018H81.3893C81.8165 31.2018 82.0769 31.3564 82.0769 31.6988C82.0769 32.0118 81.8847 32.1879 81.4565 32.1879ZM83.3197 32.1771V31.1725H84.2849V30.8927H83.3197V30.0318H84.6193V29.7413H83.0024V32.4628H84.6941V32.1762H83.3197V32.1771ZM11.3648 31.059V31.0512C11.6357 30.9925 11.863 30.7939 11.863 30.4221C11.863 29.9702 11.5353 29.7413 10.9622 29.7413H10.0188V32.4628H11.0332C11.6205 32.4628 11.9483 32.1762 11.9483 31.7203C11.9483 31.3241 11.6925 31.1216 11.3648 31.059ZM10.3285 30.022H10.9414C11.3686 30.022 11.5571 30.1619 11.5571 30.474C11.5571 30.787 11.3326 30.9338 10.9338 30.9338H10.3285V30.022ZM11.019 32.1879H10.3285V31.2018H10.9518C11.379 31.2018 11.6395 31.3564 11.6395 31.6988C11.6385 32.0118 11.4462 32.1879 11.019 32.1879ZM6.27162 29.7423H5.37745V32.4638H5.69477V31.3016H6.25078C6.79921 31.3016 7.22262 31.0923 7.22262 30.5112C7.22262 29.9663 6.84184 29.7423 6.27162 29.7423ZM6.26878 31.0257H5.69571V30.0289H6.26593C6.69313 30.0289 6.91098 30.1727 6.91098 30.518C6.91004 30.8858 6.68839 31.0257 6.26878 31.0257ZM2.68169 32.4638H2.999V30.0328H4.32415V32.4638H4.64147V29.7423H2.68169V32.4638ZM20.3709 31.9561H20.3633V29.7423H20.0498V32.4638H20.3699L21.7197 30.294H21.7273V32.4638H22.037V29.7423H21.7453L20.3709 31.9561ZM40.3333 29.7423H38.3423V30.0328H39.1796V32.4638H39.4969V30.0328H40.3343V29.7423H40.3333ZM1.16804 31.4014L0.402696 29.7423H0.0749605L1.01175 31.7653L0.930292 31.9531C0.848832 32.1478 0.748428 32.2368 0.556144 32.2368C0.414062 32.2368 0.317447 32.2182 0.264403 32.2036L0.189573 32.4687C0.274822 32.4941 0.385646 32.5205 0.559933 32.5205C0.93787 32.5205 1.07616 32.3219 1.22582 31.9766L2.18345 29.7442H1.86993L1.16804 31.4014ZM34.1329 31.1725H35.0981V30.8927H34.1329V30.0318H35.4325V29.7413H33.8156V32.4628H35.5073V32.1762H34.1329V31.1725ZM32.0708 29.6904C31.4267 29.6904 30.9351 30.2314 30.9351 31.103C30.9351 31.9746 31.4267 32.5156 32.0708 32.5156C32.7121 32.5156 33.2037 31.9746 33.2037 31.103C33.2037 30.2314 32.7121 29.6904 32.0708 29.6904ZM32.0708 32.2319C31.5868 32.2319 31.2486 31.8093 31.2486 31.103C31.2486 30.3967 31.5868 29.978 32.0708 29.978C32.552 29.978 32.8902 30.3977 32.8902 31.103C32.8902 31.8093 32.551 32.2319 32.0708 32.2319ZM37.6906 31.6508C37.6234 31.3603 37.5125 31.0551 37.2208 31.0111V31.0042C37.3458 30.9788 37.4311 30.8682 37.4945 30.7352C37.5552 30.61 37.594 30.4701 37.6224 30.3488C37.6508 30.2236 37.6935 29.9888 37.8611 29.9888C37.8791 29.9888 37.9113 29.9927 37.9397 29.9995V29.7158C37.9179 29.709 37.8365 29.7012 37.7939 29.7012C37.4661 29.7012 37.3809 30.0396 37.3203 30.3077C37.3061 30.3742 37.2918 30.4368 37.2701 30.4955C37.1848 30.7645 37.0029 30.8888 36.7396 30.8888H36.391V29.7413H36.0775V32.4628H36.391V31.1754H36.7614C37.1356 31.1754 37.2634 31.3339 37.3487 31.6274C37.3667 31.6939 37.3847 31.7672 37.4017 31.8445C37.4661 32.1126 37.5722 32.4951 37.8895 32.4951C37.9539 32.4951 38.0288 32.4843 38.0572 32.4736V32.2045C38.0468 32.2084 38.0184 32.2124 38.0041 32.2124C37.8223 32.2143 37.7654 31.9825 37.6906 31.6508ZM29.5531 29.7423H28.659V32.4638H28.9763V31.3016H29.5323C30.0807 31.3016 30.5041 31.0923 30.5041 30.5112C30.5041 29.9663 30.1224 29.7423 29.5531 29.7423ZM29.5493 31.0257H28.9763V30.0289H29.5465C29.9737 30.0289 30.1915 30.1727 30.1915 30.518C30.1906 30.8858 29.969 31.0257 29.5493 31.0257ZM25.9632 32.4638H26.2805V30.0328H27.6057V32.4638H27.923V29.7423H25.9641V32.4638H25.9632ZM23.096 31.1725H24.0612V30.8927H23.096V30.0318H24.3956V29.7413H22.7787V32.4628H24.4704V32.1762H23.096V31.1725ZM6.52926 10.765H11.6442V9.87381H6.52926V10.765ZM5.58489 22.869H12.5867V6.40783H5.58489V22.869ZM6.24415 7.42033H11.9274V8.89946H6.24415V7.42033ZM6.24415 9.58033H11.9274V11.0575H6.24415V9.58033ZM6.24415 11.7393H11.9274V13.2185H6.24415V11.7393ZM6.24415 13.8993H11.9274V15.3775H6.24415V13.8993ZM6.24415 16.0584H11.9274V17.5375H6.24415V16.0584ZM6.24415 18.2184H11.9274V19.6955H6.24415V18.2184ZM6.24415 20.3764H11.9274V21.8545H6.24415V20.3764ZM6.52926 15.084H11.6442V14.1928H6.52926V15.084ZM6.52926 17.244H11.6442V16.3528H6.52926V17.244ZM6.52926 21.562H11.6442V20.6709H6.52926V21.562ZM6.52926 12.0328V12.924H11.6442V12.0328H6.52926ZM6.52926 8.60598H11.6442V7.71479H6.52926V8.60598ZM6.52926 19.4021H11.6442V18.5118H6.52926V19.4021ZM56.2995 5.58414H56.2872L55.5323 7.85174H57.0554L56.2995 5.58414ZM36.8429 12.1042H35.37L35.3444 12.9759C35.2999 14.2936 35.0337 15.401 34.7476 15.9253H36.8419V12.1042H36.8429ZM53.6729 6.2787C53.6729 5.6624 53.2855 5.40707 52.5239 5.40707H51.5085V7.18359H52.5306C53.2798 7.18359 53.6729 6.93414 53.6729 6.2787ZM53.6985 18.7887H52.6831V20.5652H53.7051C54.4544 20.5652 54.8475 20.3157 54.8475 19.6603C54.8475 19.044 54.46 18.7887 53.6985 18.7887ZM65.4505 7.41251H64.4285V9.235H65.4439C66.2055 9.235 66.5929 8.95326 66.5929 8.33696C66.5929 7.68153 66.1998 7.41251 65.4505 7.41251ZM24.7328 7.46338H24.7366V21.6384H28.0887V7.46338H28.0935L26.3658 5.37283L24.7328 7.46338ZM26.2739 19.1017H25.3958V14.5137H26.2739V19.1017ZM26.2739 13.8318H25.3958V9.23892H26.2739V13.8318ZM26.5514 9.23892H27.4295V13.8318H26.5514V9.23892ZM26.5514 14.5127H27.4295V19.1007H26.5514V14.5127ZM45.2067 12.0984H44.1913V13.8749H45.2134C45.9626 13.8749 46.3557 13.6254 46.3557 12.97C46.3557 12.3537 45.9683 12.0984 45.2067 12.0984ZM84.6448 0.709473H0.0673828V27.3308H84.6448V0.709473ZM56.0201 4.87588H56.6036L58.2659 9.74565H57.6881L57.2126 8.33011H55.3722L54.8958 9.74565H54.3559L56.0201 4.87588ZM50.1891 13.6381V14.1361H48.4689V15.9253H50.9184V16.4369H47.9035V11.5867H50.7849V12.1042H48.468V13.6381H50.1891ZM38.0354 4.89544H40.9168V5.41294H38.5999V6.94685H40.3201V7.44479H38.5999V9.23402H41.0494V9.74565H38.0345V4.89544H38.0354ZM34.2977 4.89544H37.1033V5.41294H34.8632V9.74565H34.2987V4.89544H34.2977ZM30.9446 25.6649H29.4546V23.1772H4.09493V4.86903H12.5867L12.8832 4.86707V16.4056H14.3807L18.0597 9.5412L21.7481 16.4056H23.2456V7.46338H24.3482L26.362 4.86707L28.4875 7.46338H29.5787V21.6384H30.9455V25.6649H30.9446ZM33.7834 15.9253H34.1329C34.5203 15.3423 34.7609 14.1821 34.8054 12.8379L34.8433 11.5858H37.4008V15.9243H37.9018V17.3859H37.3619V16.436H34.328V17.3859H33.7824V15.9253H33.7834ZM38.2902 24.0781H37.7446V23.1282H34.2987V18.278H34.8632V22.6166H37.2236V18.278H37.7882V22.6166H38.2893V24.0781H38.2902ZM42.1416 23.1273H39.1266V18.2771H42.008V18.7946H39.6921V20.3285H41.4122V20.8264H39.6921V22.6156H42.1416V23.1273ZM42.3064 16.4369H41.7542V12.5699H41.7418L39.3369 16.4369H38.7657V11.5867H39.3246V15.5321H39.3369L41.7864 11.5867H42.3064V16.4369ZM42.6303 9.74663H42.0658V4.89544H42.6303V6.93414H45.0419V4.89544H45.6008V9.74565H45.0419V7.45261H42.6303V9.74663ZM46.692 23.1273H46.1331V20.8332H43.7215V23.1273H43.157V18.2771H43.7215V20.3157H46.1331V18.2771H46.692V23.1273ZM45.1821 14.366H44.1923V16.4369H43.6277V11.5867H45.221C46.2364 11.5867 46.9155 11.9868 46.9155 12.9563C46.9146 13.9923 46.1587 14.366 45.1821 14.366ZM46.9146 4.89544H49.796V5.41294H47.48V6.94685H49.2002V7.44479H47.48V9.23402H49.9295V9.74565H46.9146V4.89544ZM51.1789 18.7955H49.687V23.1282H49.1225V18.7955H47.6307V18.278H51.178V18.7955H51.1789ZM51.5085 9.74663H50.944V4.89544H52.5372C53.5526 4.89544 54.2318 5.29555 54.2318 6.26501C54.2318 7.30098 53.4768 7.67468 52.4993 7.67468H51.5095V9.74663H51.5085ZM53.6729 21.0563H52.6831V23.1273H52.1185V18.2771H53.7118C54.7272 18.2771 55.4063 18.6772 55.4063 19.6466C55.4054 20.6826 54.6504 21.0563 53.6729 21.0563ZM55.4622 16.4565C55.411 16.4761 55.2784 16.4956 55.1638 16.4956C54.5993 16.4956 54.4089 15.8138 54.2943 15.3354C54.263 15.1975 54.2308 15.0664 54.1996 14.949C54.0471 14.4247 53.8188 14.1429 53.152 14.1429H52.4917V16.4369H51.9329V11.5867H52.4917V13.6313H53.1141C53.5839 13.6313 53.9078 13.4083 54.0594 12.9299C54.0973 12.8252 54.1228 12.7137 54.1484 12.5953C54.2564 12.117 54.4089 11.5134 54.9924 11.5134C55.0682 11.5134 55.215 11.5261 55.2529 11.5398V12.0446C55.2017 12.0318 55.1449 12.025 55.1136 12.025C54.8153 12.025 54.7395 12.4447 54.6883 12.6677C54.6372 12.8839 54.568 13.1334 54.46 13.3564C54.3454 13.5922 54.1939 13.7888 53.9713 13.8348V13.8475C54.4913 13.9258 54.6883 14.4706 54.8086 14.9881C54.9422 15.578 55.0435 15.9909 55.3675 15.9909C55.3931 15.9909 55.4433 15.984 55.4622 15.9781V16.4565ZM60.3366 17.3878H59.791V16.4379H56.345V11.5877H56.9095V15.9263H59.27V11.5877H59.8345V15.9263H60.3356V17.3878H60.3366ZM60.3924 5.85316C60.3924 8.54044 60.0562 9.24185 59.7256 9.56272C59.503 9.77207 59.2368 9.81218 59.0654 9.81218C58.983 9.81218 58.8239 9.79946 58.7604 9.77989V9.30152C58.786 9.30837 58.8873 9.30837 58.9129 9.30837C59.1734 9.30837 59.3448 9.19 59.4841 8.93468C59.6489 8.62653 59.8525 7.93196 59.8525 5.28381V4.8974H62.5502V9.74761H61.9856V5.41392H60.3924V5.85316ZM64.7155 16.4369H64.1633V12.5699H64.151L61.746 16.4369H61.1748V11.5867H61.7337V15.5321H61.746L64.1955 11.5867H64.7155V16.4369ZM63.864 9.74663V4.89544H64.4285V6.90772H65.4183C66.3959 6.90772 67.1508 7.28827 67.1508 8.32327C67.1508 9.28685 66.4716 9.74565 65.4562 9.74565H63.864V9.74663ZM69.1702 16.4369H68.618V14.3268H67.5581L66.4413 16.4369H65.8256L66.9869 14.2613C66.3144 14.1175 65.8891 13.7174 65.8891 12.9377C65.8891 12.0397 66.4925 11.5877 67.5647 11.5877H69.1702V16.4369ZM71.6766 9.74663H71.1177V7.45261H68.7061V9.74663H68.1416V4.89544H68.7061V6.93414H71.1177V4.89544H71.6766V9.74663ZM75.9475 9.74663L75.472 8.33109H73.6316L73.1552 9.74663H72.6152L74.2776 4.87686H74.8611L76.5234 9.74663H75.9475ZM80.6059 9.74663H80.0537V7.63555H78.9938L77.877 9.74565H77.2613L78.4226 7.57C77.7501 7.4262 77.3248 7.02609 77.3248 6.24642C77.3248 5.34838 77.9282 4.89642 79.0004 4.89642H80.6059V9.74663ZM66.448 12.9563C66.448 13.6186 66.8543 13.8348 67.5969 13.8348H68.619V12.0984H67.6036C66.8477 12.0984 66.448 12.3204 66.448 12.9563ZM77.8827 6.26599C77.8827 6.92827 78.289 7.14446 79.0317 7.14446H80.0537V5.40707H79.0383C78.2824 5.40707 77.8827 5.63012 77.8827 6.26599ZM74.5447 5.58414L73.7898 7.85174H75.3129L74.558 5.58414H74.5447ZM26.8289 13.5384H27.151V9.53141H26.8289V13.5384ZM21.0017 18.9119H18.4793V19.9636H21.0017V18.9119ZM21.0017 20.8235H18.4793V21.9005H21.0017V20.8235ZM17.6495 18.9119H15.128V19.9636H17.6495V18.9119ZM17.6495 20.8235H15.128V21.9005H17.6495V20.8235ZM18.0625 12.7147L16.0809 16.4056H20.045L18.0625 12.7147ZM25.9963 9.53141H25.6743V13.5374H25.9963V9.53141ZM26.8289 18.8082H27.151V14.8072H26.8289V18.8082ZM21.9385 17.9444H14.1922V18.9804H12.8832V22.869H23.2466V18.9804H21.9385V17.9444ZM17.9261 22.1872H14.8515V20.5368H17.9261V22.1872ZM17.9261 20.2502H14.8515V18.6253H17.9261V20.2502ZM21.2783 22.1872H18.2027V20.5368H21.2783V22.1872ZM21.2783 20.2502H18.2027V18.6253H21.2783V20.2502ZM25.9963 14.8072H25.6743V18.8082H25.9963V14.8072Z" fill="black" fill-opacity="0.3"/>
</svg>
