<svg width="275" height="22" viewBox="0 0 275 22" fill="none" xmlns="http://www.w3.org/2000/svg">
<path d="M10.3696 15.5823C10.3696 17.8695 9.98709 19.5103 9.222 20.5057C8.45691 21.5021 7.08425 21.9998 5.10401 21.9998C3.3038 21.9998 2.00376 21.5346 1.20287 20.6032C0.40198 19.6717 0 18.3211 0 16.5504C0 15.7206 0.12581 14.8719 0.378454 14.0054L3.96968 13.8671C3.75385 14.7891 3.64646 15.7111 3.64646 16.6332C3.64646 18.0906 4.1231 18.8178 5.0764 18.8178C5.59907 18.8178 5.954 18.6061 6.14323 18.1818C6.33246 17.7574 6.42656 17.0198 6.42656 15.9689V0.368652H10.3686V15.5823H10.3696Z" fill="black"/>
<path d="M24.3837 11.0182C24.3837 13.9321 24.1628 16.191 23.7229 17.7952C23.2811 19.3993 22.6377 20.5016 21.7918 21.1009C20.9449 21.7002 19.7932 21.9999 18.3346 21.9999C16.8586 21.9999 15.7069 21.7138 14.8784 21.1428C14.0499 20.5718 13.4157 19.4831 12.9748 17.879C12.534 16.2749 12.3141 13.9886 12.3141 11.0193C12.3141 8.14209 12.534 5.90196 12.9748 4.29783C13.4157 2.69369 14.055 1.58201 14.8927 0.963825C15.7294 0.346689 16.877 0.0375977 18.3346 0.0375977C19.7932 0.0375977 20.9449 0.350881 21.7918 0.977446C22.6377 1.60506 23.2811 2.71989 23.7229 4.32402C24.1628 5.9292 24.3837 8.16095 24.3837 11.0182ZM20.3066 11.0182C20.3066 7.68107 20.1941 5.45875 19.9691 4.35231C19.743 3.24587 19.1989 2.69264 18.3346 2.69264C17.4703 2.69264 16.9312 3.24167 16.7144 4.33869C16.4986 5.4357 16.3912 7.66221 16.3912 11.0182C16.3912 12.198 16.4004 13.1578 16.4178 13.8954C16.4362 14.633 16.4669 15.3382 16.5129 16.0119C16.5569 16.6856 16.6203 17.2011 16.7021 17.5615C16.7839 17.922 16.8995 18.2436 17.0529 18.5297C17.2064 18.8157 17.3813 19.0043 17.5797 19.0965C17.7781 19.1887 18.0298 19.2348 18.3356 19.2348C19.1999 19.2348 19.7441 18.7141 19.9701 17.6715C20.1931 16.629 20.3066 14.4119 20.3066 11.0182Z" fill="black"/>
<path d="M37.4261 21.6122H33.484V11.9591H30.352V21.6122H26.41V0.368652H30.352V8.55592H33.484V0.368652H37.4261V21.6122Z" fill="black"/>
<path d="M51.036 21.6122H47.6882C46.3555 17.7218 45.2314 14.4486 44.3128 11.7925C43.9518 10.7604 43.6644 9.80067 43.4485 8.9153C43.5559 10.4094 43.6101 11.8019 43.6101 13.0917V21.6111H40.0189V0.368652H43.4751C44.7885 4.33446 45.8962 7.52387 46.7963 9.94002C47.1195 10.8254 47.3804 11.738 47.5798 12.6778C47.4898 11.5347 47.4448 10.05 47.4448 8.22482V0.368652H51.036V21.6122Z" fill="black"/>
<path d="M75.3185 21.6122H71.7273V11.9591C71.7273 11.0182 71.7313 10.2209 71.7406 9.56604C71.7498 8.91118 71.7631 8.27519 71.7815 7.657C71.7989 7.03987 71.8081 6.50027 71.8081 6.03925C71.7539 6.46359 71.6955 7.05349 71.6321 7.80893C71.5687 8.56542 71.5012 9.26638 71.4296 9.9118C71.358 10.5572 71.268 11.2393 71.1596 11.9591L69.566 21.6122H66.2448C65.5247 17.3342 64.9928 14.1165 64.6512 11.9591C64.2901 9.69072 64.0569 7.71777 63.9485 6.03925C64.0027 7.44116 64.0293 9.41411 64.0293 11.9591V21.6122H60.4401V0.368724H65.4899C65.7057 1.58623 66.0167 3.47641 66.4217 6.03925C66.8268 8.60314 67.1193 10.3822 67.2983 11.3776C67.3883 11.8942 67.5765 13.075 67.866 14.918C67.9918 14.0882 68.181 12.9168 68.4337 11.4049C68.5953 10.5384 68.8868 8.82317 69.3103 6.26033C69.7327 3.69748 70.0702 1.73292 70.3229 0.367676H75.3185V21.6122Z" fill="black"/>
<path d="M86.8808 11.5632C86.8808 14.6237 85.3506 16.1545 82.2902 16.1545C80.4 16.1545 79.0857 15.573 78.3482 14.4121C77.6097 13.2501 77.2415 11.2122 77.2415 8.29938C77.2415 6.65857 77.3581 5.2839 77.5923 4.17745C77.8265 3.07101 78.1774 2.21813 78.6458 1.6188C79.1133 1.02053 79.6451 0.600371 80.2394 0.360432C80.8317 0.120493 81.5517 0 82.3987 0C83.9114 0 84.9865 0.387674 85.6257 1.16198C86.264 1.93628 86.5842 3.07101 86.5842 4.56513C86.5842 5.32162 86.5576 5.82874 86.5033 6.08649L83.1822 6.19755C83.2538 5.86541 83.2896 5.43268 83.2896 4.89727C83.2896 3.99409 83.2261 3.3581 83.1003 2.98928C82.9745 2.62047 82.7035 2.43606 82.2902 2.43606C81.9292 2.43606 81.6561 2.5838 81.4668 2.87822C81.2766 3.17369 81.1375 3.71329 81.0485 4.49598C80.9575 5.28075 80.9125 6.42806 80.9125 7.93999C80.9125 10.374 80.9984 11.933 81.1692 12.6141C81.34 13.2962 81.741 13.6378 82.371 13.6378C82.8395 13.6378 83.1494 13.4167 83.3029 12.9735C83.4553 12.5313 83.533 11.8209 83.533 10.8434C83.533 10.419 83.4962 9.87522 83.4246 9.21094L86.6384 9.34924C86.8 9.97685 86.8808 10.7145 86.8808 11.5632Z" fill="black"/>
<path d="M99.6745 21.6122H95.5167L94.814 17.7124H91.816L91.1685 21.6122H87.4147L91.3844 0.285889H95.3806L99.6745 21.6122ZM94.3015 14.7797C94.0489 12.8434 93.8146 11.0088 93.5988 9.27574C93.472 8.20597 93.3646 7.11839 93.2746 6.01194C93.1672 7.4872 93.068 8.5664 92.978 9.2485L92.3029 14.7807H94.3015V14.7797Z" fill="black"/>
<path d="M111.341 15.6934C111.341 17.814 110.891 19.3951 109.991 20.4366C109.091 21.4791 107.651 21.9999 105.67 21.9999C103.889 21.9999 102.56 21.5619 101.686 20.686C100.813 19.81 100.377 18.4595 100.377 16.6332C100.377 15.8411 100.494 15.0657 100.729 14.3093L104.293 14.1709C104.131 14.8352 104.05 15.5634 104.05 16.3555C104.05 17.3886 104.158 18.1116 104.373 18.5276C104.589 18.9425 105.031 19.1499 105.697 19.1499C106.346 19.1499 106.795 18.9561 107.047 18.5695C107.299 18.1818 107.425 17.4725 107.425 16.4394C107.425 15.2963 107.258 14.4434 106.926 13.8807C106.592 13.3181 105.877 12.7607 104.779 12.2074C104.652 12.1519 104.373 12.023 103.942 11.8198C103.509 11.6175 103.168 11.4509 102.915 11.3221C101.925 10.8422 101.236 10.1423 100.849 9.22024C100.462 8.29821 100.269 7.15509 100.269 5.7909C100.269 3.96463 100.696 2.55015 101.551 1.54429C102.407 0.539479 103.716 0.0375977 105.481 0.0375977C107.065 0.0375977 108.276 0.471374 109.113 1.33788C109.951 2.20438 110.369 3.42189 110.369 4.98935C110.369 5.43151 110.278 6.04027 110.098 6.81457L106.669 7.03565C106.776 6.55577 106.83 6.00255 106.83 5.37598C106.83 4.36174 106.731 3.66602 106.534 3.28673C106.335 2.90953 105.949 2.71989 105.372 2.71989C104.833 2.71989 104.472 2.89486 104.292 3.24482C104.112 3.59582 104.022 4.14904 104.022 4.90448C104.022 5.84538 104.147 6.53691 104.399 6.97907C104.651 7.42227 105.164 7.83719 105.938 8.22381C106.083 8.29821 106.407 8.45537 106.91 8.69426C107.414 8.9342 107.801 9.12804 108.072 9.27473C109.242 9.90234 110.079 10.7227 110.583 11.737C111.087 12.7523 111.341 14.0704 111.341 15.6934Z" fill="black"/>
<path d="M122.168 21.6122H113.122V0.368652H117.064V18.1828H122.167V21.6122H122.168Z" fill="black"/>
<path d="M135.554 21.6124H131.396L130.693 17.7126H127.696L127.048 21.6124H123.294L127.264 0.286133H131.26L135.554 21.6124ZM130.181 14.7799C129.928 12.8436 129.694 11.009 129.478 9.27599C129.351 8.20622 129.244 7.11863 129.154 6.01219C129.047 7.48745 128.947 8.56665 128.857 9.24875L128.182 14.781H130.181V14.7799Z" fill="black"/>
<path d="M147.867 21.6124H144.519C143.187 17.722 142.062 14.4488 141.144 11.7927C140.783 10.7607 140.495 9.80091 140.28 8.91555C140.387 10.4097 140.441 11.8021 140.441 13.092V21.6114H136.85V0.368896H140.306C141.62 4.3347 142.727 7.52411 143.627 9.94026C143.951 10.8256 144.211 11.7382 144.411 12.6781C144.321 11.535 144.276 10.0503 144.276 8.22507V0.368896H147.867V21.6124Z" fill="black"/>
<path d="M168.853 13.5352H164.613V17.8782H161.346V13.5352H157.053V10.4107H161.346V6.09497H164.613V10.4107H168.853V13.5352Z" fill="black"/>
<path d="M189.103 6.86925C189.103 9.26655 188.645 10.9734 187.725 11.9866C186.808 13.0008 185.431 13.5079 183.594 13.5079H182.217V21.6124H178.275V0.368896H183.217C185.16 0.368896 186.628 0.881255 187.618 1.90388C188.608 2.92755 189.103 4.58302 189.103 6.86925ZM185.026 6.89754C185.026 5.55221 184.855 4.59769 184.513 4.03504C184.171 3.47239 183.613 3.19159 182.838 3.19159H182.218V10.5218H183.083C184.378 10.5207 185.026 9.3137 185.026 6.89754Z" fill="black"/>
<path d="M200.471 21.6124H196.313L195.611 17.7126H192.613L191.965 21.6124H188.211L192.181 0.286133H196.177L200.471 21.6124ZM195.098 14.7799C194.846 12.8436 194.611 11.009 194.395 9.27599C194.269 8.20622 194.161 7.11863 194.071 6.01219C193.964 7.48745 193.865 8.56665 193.775 9.24875L193.099 14.781H195.098V14.7799Z" fill="black"/>
<path d="M213.111 21.6122H208.979C208.727 21.2067 208.565 20.5707 208.492 19.7031C208.421 18.8366 208.385 17.4347 208.385 15.4984C208.385 13.6365 207.772 12.704 206.549 12.704H205.712V21.6111H201.77V0.368652H207.278C209.044 0.368652 210.393 0.85796 211.33 1.83448C212.265 2.81205 212.733 4.27788 212.733 6.23301C212.733 7.81934 212.455 8.96664 211.896 9.67703C211.338 10.3874 210.483 10.8338 209.331 11.0182C210.447 11.1481 211.217 11.6636 211.64 12.5678C212.063 13.472 212.292 14.8362 212.329 16.6615C212.327 19.2432 212.588 20.8934 213.111 21.6122ZM208.654 6.56516C208.654 5.31202 208.442 4.43504 208.02 3.93735C207.596 3.43966 206.953 3.19029 206.089 3.19029H205.711V9.5251H206.548C207.267 9.5251 207.799 9.29459 208.142 8.83358C208.483 8.37256 208.654 7.61607 208.654 6.56516Z" fill="black"/>
<path d="M224.882 3.68798H221.319V21.6122H217.377V3.68798H213.812V0.368652H224.883V3.68798H224.882Z" fill="black"/>
<path d="M237.385 21.6122H234.037C232.704 17.7218 231.58 14.4486 230.662 11.7925C230.301 10.7604 230.013 9.80067 229.797 8.9153C229.905 10.4094 229.959 11.8019 229.959 13.0917V21.6111H226.368V0.368652H229.824C231.137 4.33446 232.245 7.52387 233.145 9.94002C233.468 10.8254 233.729 11.738 233.929 12.6778C233.839 11.5347 233.794 10.05 233.794 8.22482V0.368652H237.385V21.6122Z" fill="black"/>
<path d="M249.428 21.6122H239.897V0.368652H248.834V3.68798H243.839V9.02636H248.24V12.4295H243.839V18.2656H249.428V21.6122Z" fill="black"/>
<path d="M262.553 21.6122H258.422C258.169 21.2067 258.007 20.5707 257.935 19.7031C257.863 18.8366 257.827 17.4347 257.827 15.4984C257.827 13.6365 257.215 12.704 255.991 12.704H255.155V21.6111H251.212V0.368652H256.72C258.485 0.368652 259.834 0.85796 260.771 1.83448C261.706 2.81205 262.175 4.27788 262.175 6.23301C262.175 7.81934 261.896 8.96664 261.338 9.67703C260.779 10.3874 259.924 10.8338 258.773 11.0182C259.888 11.1481 260.659 11.6636 261.081 12.5678C261.505 13.472 261.734 14.8362 261.771 16.6615C261.77 19.2432 262.03 20.8934 262.553 21.6122ZM258.096 6.56516C258.096 5.31202 257.885 4.43504 257.462 3.93735C257.039 3.43966 256.395 3.19029 255.531 3.19029H255.154V9.5251H255.99C256.709 9.5251 257.241 9.29459 257.584 8.83358C257.926 8.37256 258.096 7.61607 258.096 6.56516Z" fill="black"/>
<path d="M275 15.6934C275 17.814 274.55 19.3951 273.65 20.4366C272.75 21.4791 271.31 21.9999 269.329 21.9999C267.548 21.9999 266.219 21.5619 265.345 20.686C264.472 19.81 264.036 18.4595 264.036 16.6332C264.036 15.8411 264.153 15.0657 264.388 14.3093L267.952 14.1709C267.79 14.8352 267.709 15.5634 267.709 16.3555C267.709 17.3886 267.817 18.1116 268.032 18.5276C268.248 18.9425 268.69 19.1499 269.356 19.1499C270.004 19.1499 270.453 18.9561 270.706 18.5695C270.958 18.1818 271.084 17.4725 271.084 16.4394C271.084 15.2963 270.917 14.4434 270.584 13.8807C270.251 13.3181 269.536 12.7607 268.437 12.2074C268.311 12.1519 268.032 12.023 267.601 11.8198C267.168 11.6175 266.826 11.4509 266.574 11.3221C265.584 10.8422 264.895 10.1423 264.508 9.22024C264.121 8.29821 263.928 7.15509 263.928 5.7909C263.928 3.96463 264.355 2.55015 265.21 1.54429C266.065 0.539479 267.375 0.0375977 269.14 0.0375977C270.724 0.0375977 271.935 0.471374 272.772 1.33788C273.61 2.20438 274.028 3.42189 274.028 4.98935C274.028 5.43151 273.937 6.04027 273.757 6.81457L270.328 7.03565C270.435 6.55577 270.489 6.00255 270.489 5.37598C270.489 4.36174 270.39 3.66602 270.193 3.28673C269.994 2.90953 269.608 2.71989 269.031 2.71989C268.492 2.71989 268.131 2.89486 267.951 3.24482C267.771 3.59582 267.681 4.14904 267.681 4.90448C267.681 5.84538 267.806 6.53691 268.058 6.97907C268.31 7.42227 268.823 7.83719 269.597 8.22381C269.742 8.29821 270.066 8.45537 270.569 8.69426C271.073 8.9342 271.46 9.12804 271.731 9.27473C272.901 9.90234 273.738 10.7227 274.242 11.737C274.747 12.7523 275 14.0704 275 15.6934Z" fill="black"/>
</svg>
